<mxfile host="app.diagrams.net" modified="2020-12-22T07:17:04.055Z" agent="5.0 (Windows NT 10.0; Win64; x64) AppleWebKit/537.36 (KHTML, like Gecko) Chrome/87.0.4280.88 Safari/537.36" etag="zANxigzavvDePBZ-_054" version="14.1.1" type="github">
  <diagram name="Page-1" id="42789a77-a242-8287-6e28-9cd8cfd52e62">
    <mxGraphModel dx="981" dy="1426" grid="1" gridSize="10" guides="1" tooltips="1" connect="1" arrows="1" fold="1" page="1" pageScale="1" pageWidth="1100" pageHeight="850" background="#ffffff" math="0" shadow="0">
      <root>
        <mxCell id="0" />
        <mxCell id="1" parent="0" />
        <mxCell id="0kl94awspdlHa5RX2pDj-19" style="edgeStyle=none;rounded=0;orthogonalLoop=1;jettySize=auto;html=1;exitX=0.5;exitY=1;exitDx=0;exitDy=0;entryX=0.5;entryY=0;entryDx=0;entryDy=0;" edge="1" parent="1" source="0kl94awspdlHa5RX2pDj-1" target="0kl94awspdlHa5RX2pDj-5">
          <mxGeometry relative="1" as="geometry" />
        </mxCell>
        <mxCell id="0kl94awspdlHa5RX2pDj-22" style="edgeStyle=none;rounded=0;orthogonalLoop=1;jettySize=auto;html=1;exitX=0.75;exitY=1;exitDx=0;exitDy=0;entryX=0.25;entryY=0;entryDx=0;entryDy=0;" edge="1" parent="1" source="0kl94awspdlHa5RX2pDj-1" target="0kl94awspdlHa5RX2pDj-6">
          <mxGeometry relative="1" as="geometry" />
        </mxCell>
        <mxCell id="0kl94awspdlHa5RX2pDj-32" style="edgeStyle=none;rounded=0;orthogonalLoop=1;jettySize=auto;html=1;exitX=1;exitY=0.5;exitDx=0;exitDy=0;entryX=0.25;entryY=0;entryDx=0;entryDy=0;" edge="1" parent="1" source="0kl94awspdlHa5RX2pDj-1" target="0kl94awspdlHa5RX2pDj-4">
          <mxGeometry relative="1" as="geometry" />
        </mxCell>
        <mxCell id="0kl94awspdlHa5RX2pDj-1" value="LGW" style="rounded=0;whiteSpace=wrap;html=1;" vertex="1" parent="1">
          <mxGeometry x="490" y="-20" width="120" height="60" as="geometry" />
        </mxCell>
        <mxCell id="0kl94awspdlHa5RX2pDj-2" value="GXMD" style="rounded=0;whiteSpace=wrap;html=1;" vertex="1" parent="1">
          <mxGeometry x="210" y="130" width="120" height="60" as="geometry" />
        </mxCell>
        <mxCell id="0kl94awspdlHa5RX2pDj-14" style="rounded=0;orthogonalLoop=1;jettySize=auto;html=1;exitX=0.25;exitY=0;exitDx=0;exitDy=0;entryX=0.25;entryY=1;entryDx=0;entryDy=0;" edge="1" parent="1" source="0kl94awspdlHa5RX2pDj-3" target="0kl94awspdlHa5RX2pDj-1">
          <mxGeometry relative="1" as="geometry" />
        </mxCell>
        <mxCell id="0kl94awspdlHa5RX2pDj-3" value="Repository" style="rounded=0;whiteSpace=wrap;html=1;" vertex="1" parent="1">
          <mxGeometry x="350" y="130" width="120" height="60" as="geometry" />
        </mxCell>
        <mxCell id="0kl94awspdlHa5RX2pDj-4" value="Distributor" style="rounded=0;whiteSpace=wrap;html=1;" vertex="1" parent="1">
          <mxGeometry x="900" y="130" width="120" height="60" as="geometry" />
        </mxCell>
        <mxCell id="0kl94awspdlHa5RX2pDj-18" style="edgeStyle=none;rounded=0;orthogonalLoop=1;jettySize=auto;html=1;exitX=0.25;exitY=0;exitDx=0;exitDy=0;entryX=0.417;entryY=1;entryDx=0;entryDy=0;entryPerimeter=0;" edge="1" parent="1" source="0kl94awspdlHa5RX2pDj-5" target="0kl94awspdlHa5RX2pDj-1">
          <mxGeometry relative="1" as="geometry" />
        </mxCell>
        <mxCell id="0kl94awspdlHa5RX2pDj-38" style="edgeStyle=none;rounded=0;orthogonalLoop=1;jettySize=auto;html=1;exitX=0.25;exitY=1;exitDx=0;exitDy=0;entryX=0.25;entryY=0;entryDx=0;entryDy=0;" edge="1" parent="1" source="0kl94awspdlHa5RX2pDj-5" target="0kl94awspdlHa5RX2pDj-34">
          <mxGeometry relative="1" as="geometry" />
        </mxCell>
        <mxCell id="0kl94awspdlHa5RX2pDj-44" style="edgeStyle=none;rounded=0;orthogonalLoop=1;jettySize=auto;html=1;exitX=0.75;exitY=1;exitDx=0;exitDy=0;entryX=0.25;entryY=0;entryDx=0;entryDy=0;" edge="1" parent="1" source="0kl94awspdlHa5RX2pDj-5" target="0kl94awspdlHa5RX2pDj-35">
          <mxGeometry relative="1" as="geometry" />
        </mxCell>
        <mxCell id="0kl94awspdlHa5RX2pDj-49" style="edgeStyle=none;rounded=0;orthogonalLoop=1;jettySize=auto;html=1;exitX=0.868;exitY=1.044;exitDx=0;exitDy=0;entryX=0;entryY=0;entryDx=0;entryDy=0;exitPerimeter=0;" edge="1" parent="1" source="0kl94awspdlHa5RX2pDj-5" target="0kl94awspdlHa5RX2pDj-36">
          <mxGeometry relative="1" as="geometry" />
        </mxCell>
        <mxCell id="0kl94awspdlHa5RX2pDj-54" style="edgeStyle=none;rounded=0;orthogonalLoop=1;jettySize=auto;html=1;exitX=1;exitY=1;exitDx=0;exitDy=0;entryX=0;entryY=0;entryDx=0;entryDy=0;" edge="1" parent="1" source="0kl94awspdlHa5RX2pDj-5" target="0kl94awspdlHa5RX2pDj-37">
          <mxGeometry relative="1" as="geometry" />
        </mxCell>
        <mxCell id="0kl94awspdlHa5RX2pDj-5" value="Converter" style="rounded=0;whiteSpace=wrap;html=1;" vertex="1" parent="1">
          <mxGeometry x="490" y="130" width="120" height="60" as="geometry" />
        </mxCell>
        <mxCell id="0kl94awspdlHa5RX2pDj-23" style="edgeStyle=none;rounded=0;orthogonalLoop=1;jettySize=auto;html=1;exitX=0.5;exitY=0;exitDx=0;exitDy=0;entryX=0.75;entryY=1;entryDx=0;entryDy=0;" edge="1" parent="1" source="0kl94awspdlHa5RX2pDj-24" target="0kl94awspdlHa5RX2pDj-1">
          <mxGeometry relative="1" as="geometry" />
        </mxCell>
        <mxCell id="0kl94awspdlHa5RX2pDj-6" value="Controller" style="rounded=0;whiteSpace=wrap;html=1;" vertex="1" parent="1">
          <mxGeometry x="630" y="130" width="120" height="60" as="geometry" />
        </mxCell>
        <mxCell id="0kl94awspdlHa5RX2pDj-25" style="edgeStyle=none;rounded=0;orthogonalLoop=1;jettySize=auto;html=1;exitX=0.25;exitY=0;exitDx=0;exitDy=0;entryX=1;entryY=0.75;entryDx=0;entryDy=0;" edge="1" parent="1" source="0kl94awspdlHa5RX2pDj-7" target="0kl94awspdlHa5RX2pDj-1">
          <mxGeometry relative="1" as="geometry" />
        </mxCell>
        <mxCell id="0kl94awspdlHa5RX2pDj-7" value="Bug Filter" style="rounded=0;whiteSpace=wrap;html=1;" vertex="1" parent="1">
          <mxGeometry x="760" y="130" width="120" height="60" as="geometry" />
        </mxCell>
        <mxCell id="0kl94awspdlHa5RX2pDj-8" value="" style="endArrow=classic;html=1;exitX=0.25;exitY=0;exitDx=0;exitDy=0;entryX=0;entryY=1;entryDx=0;entryDy=0;" edge="1" parent="1" source="0kl94awspdlHa5RX2pDj-2" target="0kl94awspdlHa5RX2pDj-1">
          <mxGeometry width="50" height="50" relative="1" as="geometry">
            <mxPoint x="520" y="450" as="sourcePoint" />
            <mxPoint x="500" y="100" as="targetPoint" />
          </mxGeometry>
        </mxCell>
        <mxCell id="0kl94awspdlHa5RX2pDj-11" value="Message" style="text;html=1;strokeColor=none;fillColor=none;align=center;verticalAlign=middle;whiteSpace=wrap;rounded=0;" vertex="1" parent="1">
          <mxGeometry x="330" y="50" width="40" height="20" as="geometry" />
        </mxCell>
        <mxCell id="0kl94awspdlHa5RX2pDj-17" value="Application&lt;br&gt;Property" style="text;html=1;strokeColor=none;fillColor=none;align=center;verticalAlign=middle;whiteSpace=wrap;rounded=0;" vertex="1" parent="1">
          <mxGeometry x="420" y="80" width="40" height="20" as="geometry" />
        </mxCell>
        <mxCell id="0kl94awspdlHa5RX2pDj-20" value="Message、&lt;br&gt;application property" style="text;html=1;strokeColor=none;fillColor=none;align=center;verticalAlign=middle;whiteSpace=wrap;rounded=0;" vertex="1" parent="1">
          <mxGeometry x="560" y="80" width="40" height="20" as="geometry" />
        </mxCell>
        <mxCell id="0kl94awspdlHa5RX2pDj-21" value="Quote" style="text;html=1;strokeColor=none;fillColor=none;align=center;verticalAlign=middle;whiteSpace=wrap;rounded=0;" vertex="1" parent="1">
          <mxGeometry x="500" y="80" width="40" height="20" as="geometry" />
        </mxCell>
        <mxCell id="0kl94awspdlHa5RX2pDj-26" value="Filter&lt;br&gt;Setting" style="text;html=1;strokeColor=none;fillColor=none;align=center;verticalAlign=middle;whiteSpace=wrap;rounded=0;" vertex="1" parent="1">
          <mxGeometry x="680" y="60" width="40" height="20" as="geometry" />
        </mxCell>
        <mxCell id="0kl94awspdlHa5RX2pDj-24" value="Quote、&lt;br&gt;Filter Setting" style="text;html=1;strokeColor=none;fillColor=none;align=center;verticalAlign=middle;whiteSpace=wrap;rounded=0;" vertex="1" parent="1">
          <mxGeometry x="600" y="100" width="70" height="20" as="geometry" />
        </mxCell>
        <mxCell id="0kl94awspdlHa5RX2pDj-29" style="edgeStyle=none;rounded=0;orthogonalLoop=1;jettySize=auto;html=1;exitX=0.5;exitY=0;exitDx=0;exitDy=0;entryX=1;entryY=1;entryDx=0;entryDy=0;" edge="1" parent="1" source="0kl94awspdlHa5RX2pDj-6" target="0kl94awspdlHa5RX2pDj-1">
          <mxGeometry relative="1" as="geometry">
            <mxPoint x="690" y="130" as="sourcePoint" />
            <mxPoint x="580" y="40" as="targetPoint" />
          </mxGeometry>
        </mxCell>
        <mxCell id="0kl94awspdlHa5RX2pDj-31" value="Filtered Quote" style="text;html=1;strokeColor=none;fillColor=none;align=center;verticalAlign=middle;whiteSpace=wrap;rounded=0;" vertex="1" parent="1">
          <mxGeometry x="640" y="90" width="70" height="20" as="geometry" />
        </mxCell>
        <mxCell id="0kl94awspdlHa5RX2pDj-33" value="Filtered Quote" style="text;html=1;strokeColor=none;fillColor=none;align=center;verticalAlign=middle;whiteSpace=wrap;rounded=0;" vertex="1" parent="1">
          <mxGeometry x="785" y="50" width="70" height="20" as="geometry" />
        </mxCell>
        <mxCell id="0kl94awspdlHa5RX2pDj-39" style="edgeStyle=none;rounded=0;orthogonalLoop=1;jettySize=auto;html=1;exitX=0.75;exitY=0;exitDx=0;exitDy=0;entryX=0.5;entryY=1;entryDx=0;entryDy=0;" edge="1" parent="1" source="0kl94awspdlHa5RX2pDj-34" target="0kl94awspdlHa5RX2pDj-5">
          <mxGeometry relative="1" as="geometry" />
        </mxCell>
        <mxCell id="0kl94awspdlHa5RX2pDj-34" value="get MaxQuantity" style="rounded=0;whiteSpace=wrap;html=1;" vertex="1" parent="1">
          <mxGeometry x="370" y="290" width="80" height="30" as="geometry" />
        </mxCell>
        <mxCell id="0kl94awspdlHa5RX2pDj-35" value="get 9094" style="rounded=0;whiteSpace=wrap;html=1;" vertex="1" parent="1">
          <mxGeometry x="513" y="290" width="75" height="30" as="geometry" />
        </mxCell>
        <mxCell id="0kl94awspdlHa5RX2pDj-50" style="edgeStyle=none;rounded=0;orthogonalLoop=1;jettySize=auto;html=1;exitX=0.75;exitY=0;exitDx=0;exitDy=0;entryX=0.862;entryY=1.009;entryDx=0;entryDy=0;entryPerimeter=0;" edge="1" parent="1" source="0kl94awspdlHa5RX2pDj-36" target="0kl94awspdlHa5RX2pDj-5">
          <mxGeometry relative="1" as="geometry">
            <mxPoint x="610" y="190" as="targetPoint" />
          </mxGeometry>
        </mxCell>
        <mxCell id="0kl94awspdlHa5RX2pDj-36" value="compare&amp;nbsp;" style="rounded=0;whiteSpace=wrap;html=1;" vertex="1" parent="1">
          <mxGeometry x="637.5" y="290" width="75" height="30" as="geometry" />
        </mxCell>
        <mxCell id="0kl94awspdlHa5RX2pDj-55" style="edgeStyle=none;rounded=0;orthogonalLoop=1;jettySize=auto;html=1;exitX=0.5;exitY=0;exitDx=0;exitDy=0;entryX=1;entryY=1;entryDx=0;entryDy=0;" edge="1" parent="1" source="0kl94awspdlHa5RX2pDj-37" target="0kl94awspdlHa5RX2pDj-5">
          <mxGeometry relative="1" as="geometry" />
        </mxCell>
        <mxCell id="0kl94awspdlHa5RX2pDj-37" value="make Quote" style="rounded=0;whiteSpace=wrap;html=1;" vertex="1" parent="1">
          <mxGeometry x="780" y="290" width="75" height="30" as="geometry" />
        </mxCell>
        <mxCell id="0kl94awspdlHa5RX2pDj-40" value="application property" style="text;html=1;strokeColor=none;fillColor=none;align=center;verticalAlign=middle;whiteSpace=wrap;rounded=0;" vertex="1" parent="1">
          <mxGeometry x="440" y="210" width="40" height="20" as="geometry" />
        </mxCell>
        <mxCell id="0kl94awspdlHa5RX2pDj-43" value="max quantity" style="text;html=1;strokeColor=none;fillColor=none;align=center;verticalAlign=middle;whiteSpace=wrap;rounded=0;" vertex="1" parent="1">
          <mxGeometry x="470" y="245" width="40" height="20" as="geometry" />
        </mxCell>
        <mxCell id="0kl94awspdlHa5RX2pDj-46" value="Quote" style="text;html=1;strokeColor=none;fillColor=none;align=center;verticalAlign=middle;whiteSpace=wrap;rounded=0;" vertex="1" parent="1">
          <mxGeometry x="530" y="225" width="40" height="20" as="geometry" />
        </mxCell>
        <mxCell id="0kl94awspdlHa5RX2pDj-51" style="edgeStyle=none;rounded=0;orthogonalLoop=1;jettySize=auto;html=1;exitX=0.75;exitY=0;exitDx=0;exitDy=0;entryX=0.75;entryY=1;entryDx=0;entryDy=0;" edge="1" parent="1" source="0kl94awspdlHa5RX2pDj-35" target="0kl94awspdlHa5RX2pDj-5">
          <mxGeometry relative="1" as="geometry">
            <mxPoint x="569.2499999999998" y="290" as="sourcePoint" />
            <mxPoint x="577.9999999999998" y="270" as="targetPoint" />
          </mxGeometry>
        </mxCell>
        <mxCell id="0kl94awspdlHa5RX2pDj-52" value="max quantity、9094" style="text;html=1;strokeColor=none;fillColor=none;align=center;verticalAlign=middle;whiteSpace=wrap;rounded=0;" vertex="1" parent="1">
          <mxGeometry x="600" y="240" width="40" height="20" as="geometry" />
        </mxCell>
        <mxCell id="0kl94awspdlHa5RX2pDj-53" value="liquidity" style="text;html=1;strokeColor=none;fillColor=none;align=center;verticalAlign=middle;whiteSpace=wrap;rounded=0;" vertex="1" parent="1">
          <mxGeometry x="655" y="260" width="40" height="20" as="geometry" />
        </mxCell>
        <mxCell id="0kl94awspdlHa5RX2pDj-57" value="liquidity" style="text;html=1;strokeColor=none;fillColor=none;align=center;verticalAlign=middle;whiteSpace=wrap;rounded=0;" vertex="1" parent="1">
          <mxGeometry x="698" y="254" width="40" height="20" as="geometry" />
        </mxCell>
        <mxCell id="0kl94awspdlHa5RX2pDj-59" value="quote" style="text;html=1;strokeColor=none;fillColor=none;align=center;verticalAlign=middle;whiteSpace=wrap;rounded=0;" vertex="1" parent="1">
          <mxGeometry x="760" y="240" width="40" height="20" as="geometry" />
        </mxCell>
        <mxCell id="0kl94awspdlHa5RX2pDj-61" value="9094" style="text;html=1;strokeColor=none;fillColor=none;align=center;verticalAlign=middle;whiteSpace=wrap;rounded=0;" vertex="1" parent="1">
          <mxGeometry x="560" y="254" width="40" height="20" as="geometry" />
        </mxCell>
      </root>
    </mxGraphModel>
  </diagram>
</mxfile>
